<svg width="47" height="45" viewBox="0 0 47 45" fill="none" xmlns="http://www.w3.org/2000/svg">
<g clip-path="url(#clip0_19_459)">
<path fill-rule="evenodd" clip-rule="evenodd" d="M37.4547 24.7061C36.953 28.2431 35.106 31.5898 32.0298 33.9127C25.8594 38.572 17.0801 37.3469 12.4208 31.1765C7.76149 25.006 8.98651 16.2268 15.157 11.5675C21.3274 6.90817 30.1067 8.13319 34.766 14.3036C36.0905 16.0578 36.9395 18.0227 37.3346 20.0439C36.6868 19.8128 35.9545 19.8525 35.3219 20.1885C34.9646 18.5409 34.2526 16.9427 33.1699 15.5088C29.1762 10.2199 21.6511 9.16987 16.3622 13.1636C11.0732 17.1573 10.0232 24.6823 14.0169 29.9713C18.0106 35.2602 25.5357 36.3103 30.8246 32.3166C33.3916 30.3782 34.96 27.608 35.438 24.6654C36.0665 24.957 36.8008 24.9793 37.4547 24.7061Z" fill="white"/>
<path fill-rule="evenodd" clip-rule="evenodd" d="M37.4995 24.145C38.4912 23.3962 38.688 21.9852 37.9392 20.9936C37.1904 20.0019 35.7795 19.805 34.7878 20.5538C33.7961 21.3026 33.5992 22.7136 34.348 23.7053C35.0969 24.6969 36.5078 24.8938 37.4995 24.145ZM37.3977 23.5953C38.0588 23.0961 38.1901 22.1555 37.6909 21.4944C37.1916 20.8332 36.251 20.702 35.5899 21.2012C34.9288 21.7004 34.7975 22.6411 35.2967 23.3022C35.7959 23.9633 36.7366 24.0945 37.3977 23.5953Z" fill="white"/>
<circle cx="36.4933" cy="22.3985" r="0.5" transform="rotate(-37.0565 36.4933 22.3985)" fill="white"/>
<circle cx="23.5924" cy="22.74" r="10" transform="rotate(-37.0565 23.5924 22.74)" fill="white"/>
</g>
<defs>
<clipPath id="clip0_19_459">
<rect width="36" height="28" fill="white" transform="translate(0.792969 22.4146) rotate(-37.0565)"/>
</clipPath>
</defs>
</svg>
