<svg width="36" height="28" viewBox="0 0 36 28" fill="none" xmlns="http://www.w3.org/2000/svg">
<g id="launch_stage_icon">
<g id="stagegroup">
<path id="Subtract" fill-rule="evenodd" clip-rule="evenodd" d="M27.8772 23.9218C25.3454 26.4422 21.8546 28 18 28C10.268 28 4 21.732 4 14C4 6.26801 10.268 0 18 0C25.732 0 32 6.26801 32 14C32 16.198 31.4935 18.2778 30.5907 20.1288C30.213 19.5541 29.6047 19.1444 28.8974 19.0314C29.6051 17.5012 30 15.7967 30 14C30 7.37258 24.6274 2 18 2C11.3726 2 6 7.37258 6 14C6 20.6274 11.3726 26 18 26C21.2166 26 24.1376 24.7344 26.2923 22.674C26.6182 23.2856 27.1907 23.7458 27.8772 23.9218Z" fill="black"/>
<g id="stage">
<path id="Subtract_2" fill-rule="evenodd" clip-rule="evenodd" d="M28.25 23.5C29.4926 23.5 30.5 22.4926 30.5 21.25C30.5 20.0074 29.4926 19 28.25 19C27.0074 19 26 20.0074 26 21.25C26 22.4926 27.0074 23.5 28.25 23.5ZM28.5 23C29.3284 23 30 22.3284 30 21.5C30 20.6716 29.3284 20 28.5 20C27.6716 20 27 20.6716 27 21.5C27 22.3284 27.6716 23 28.5 23Z" fill="black"/>
<circle id="Ellipse 15" cx="28.5" cy="21.5" r="0.5" fill="black"/>
</g>
</g>
</g>
</svg>
